<svg xmlns="http://www.w3.org/2000/svg" width="415" height="37"><svg width="16" height="16" viewBox="0 0 16 16"><path fill="#fff" d="M3.002 4h10.496a.997.997 0 0 1 1.002.997v6.006a1 1 0 0 1-1.002.997H3.002A.997.997 0 0 1 2 11.003V4.997A1 1 0 0 1 3.002 4zM3.5 5.5V6h2v-.5h-2zm8 0V7H13V5.5h-1.5zm.5.5v.5h.5V6H12zM3.5 9v.5h4V9h-4zm0 1v.5h4V10h-4z"/></svg><svg width="16" height="16" viewBox="0 0 16 16" y="21"><path fill="#fff" d="M8 0a5 5 0 0 0-5 5c0 5 5 11 5 11s5-6 5-11a5 5 0 0 0-5-5zm0 8a3 3 0 1 1 0-6 3 3 0 0 1 0 6z"/></svg><svg width="16" height="16" viewBox="0 0 16 16" x="21" y="21"><path fill="#fff" d="M11.5 0h-7C3.675 0 3 .675 3 1.5v13c0 .825.675 1.5 1.5 1.5h7c.825 0 1.5-.675 1.5-1.5v-13c0-.825-.675-1.5-1.5-1.5zM6 .75h4v.5H6v-.5zM8 15a1 1 0 1 1 0-2 1 1 0 0 1 0 2zm4-3H4V2h8v10z"/></svg></svg>