<svg xmlns="http://www.w3.org/2000/svg" width="735" height="32"><svg width="32" height="32" viewBox="0 0 32 32"><path fill="#f4b60d" d="M24.832 11.445A1.001 1.001 0 0 0 24 11h-1a1 1 0 0 0-1 1v6a1 1 0 0 0 1 1h4a1 1 0 0 0 1-1v-1.5c0-.197-.059-.391-.168-.555l-3-4.5zM27 18h-4v-6h1l3 4.5V18zm4.496-2.664-4-6A2.995 2.995 0 0 0 25 8h-4V6c0-1.654-1.346-3-3-3H3C1.346 3 0 4.346 0 6v11c0 1.654 1.346 3 3 3v3c0 1.654 1.346 3 3 3h1.142c.447 1.721 2 3 3.859 3 1.857 0 3.41-1.279 3.857-3h5.282c.447 1.721 2 3 3.859 3 1.857 0 3.41-1.279 3.857-3H29c1.654 0 3-1.346 3-3v-6c0-.594-.174-1.17-.504-1.664zM3 18a1 1 0 0 1-1-1V6a1 1 0 0 1 1-1h15a1 1 0 0 1 1 1v11a1 1 0 0 1-1 1H3zm8.001 9a2 2 0 1 1 0-4 2 2 0 0 1 0 4zM24 27a2 2 0 1 1 0-4 2 2 0 0 1 0 4zm6-4a1 1 0 0 1-1 1h-1.143c-.447-1.721-2-3-3.857-3-1.859 0-3.412 1.279-3.859 3h-5.282c-.447-1.721-2-3-3.857-3-1.859 0-3.412 1.279-3.859 3H6a1 1 0 0 1-1-1v-3h13c1.654 0 3-1.346 3-3v-7h4c.334 0 .646.167.832.445l4 6c.109.164.168.358.168.555v6z"/></svg><svg width="32" height="32" viewBox="0 0 32 32" x="37"><path fill="#f4b60d" d="M8 6.021V3c0-1.654-1.346-3-3-3S2 1.346 2 3v3.021C.792 6.936 0 8.369 0 10s.792 3.064 2 3.977V29c0 1.654 1.346 3 3 3s3-1.346 3-3V13.977c1.208-.912 2-2.346 2-3.977s-.792-3.064-2-3.979zM4 3a1 1 0 1 1 2 0v2.1a5.062 5.062 0 0 0-2 0V3zm2 26a1 1 0 1 1-2 0V14.898a4.916 4.916 0 0 0 2 0V29zm1.865-18.16c-.016.053-.03.105-.049.158a2.944 2.944 0 0 1-.378.736l-.014.016a3.026 3.026 0 0 1-.616.627l-.01.008c-.241.182-.51.328-.799.43-.313.113-.646.185-.999.185s-.686-.072-1-.186a2.962 2.962 0 0 1-.799-.43l-.01-.008a3.026 3.026 0 0 1-.616-.627l-.014-.016a2.979 2.979 0 0 1-.378-.736c-.019-.053-.033-.105-.049-.158A2.945 2.945 0 0 1 2 10c0-.295.055-.574.135-.842.016-.053.03-.105.049-.156.094-.264.216-.514.378-.738l.014-.016c.174-.236.381-.449.616-.627l.01-.008c.24-.179.509-.326.798-.429C4.314 7.072 4.647 7 5 7s.686.072 1 .184c.289.104.558.25.799.43l.01.008c.235.178.442.391.616.627l.014.016a2.931 2.931 0 0 1 .426.893c.08.268.135.547.135.842 0 .293-.055.572-.135.84zM30 6.021V3c0-1.654-1.346-3-3-3s-3 1.346-3 3v3.021c-1.209.915-2 2.348-2 3.979s.791 3.064 2 3.977V29c0 1.654 1.346 3 3 3s3-1.346 3-3V13.977c1.207-.912 2-2.346 2-3.977s-.793-3.064-2-3.979zM26 3a1 1 0 1 1 2 0v2.1a5.077 5.077 0 0 0-2 0V3zm2 26a1 1 0 1 1-2 0V14.898a4.902 4.902 0 0 0 2 0V29zm1.865-18.16c-.016.053-.031.105-.049.158a2.947 2.947 0 0 1-.379.736l-.014.016a3.046 3.046 0 0 1-.615.627l-.01.008c-.242.182-.51.328-.799.43A2.932 2.932 0 0 1 27 13a2.91 2.91 0 0 1-1-.186 2.947 2.947 0 0 1-.809-.438 3.006 3.006 0 0 1-.617-.627l-.014-.016a2.975 2.975 0 0 1-.377-.736c-.02-.053-.033-.105-.049-.158A2.945 2.945 0 0 1 24 10c0-.295.055-.574.135-.842.016-.053.029-.105.049-.156.094-.264.217-.514.377-.738l.014-.016c.174-.236.381-.449.617-.627l.01-.008c.24-.18.51-.326.799-.43A2.97 2.97 0 0 1 27 7c.352 0 .686.072 1 .184a3.093 3.093 0 0 1 .809.438c.234.178.441.391.615.627l.014.016c.162.225.283.475.379.738.018.051.033.104.049.156.079.267.134.546.134.841 0 .293-.055.572-.135.84zM19 18.021V3c0-1.654-1.346-3-3-3s-3 1.346-3 3v15.021c-1.208.914-2 2.348-2 3.979s.792 3.064 2 3.977V29c0 1.654 1.346 3 3 3s3-1.346 3-3v-3.023c1.207-.912 2-2.346 2-3.977s-.793-3.064-2-3.979zM15 3a1 1 0 1 1 2 0v14.1a5.062 5.062 0 0 0-2 0V3zm2 26a1 1 0 1 1-2 0v-2.102a4.916 4.916 0 0 0 2 0V29zm1.865-6.16c-.016.053-.031.105-.049.158a2.947 2.947 0 0 1-.379.736l-.014.016a3.046 3.046 0 0 1-.615.627l-.01.008c-.242.182-.51.328-.799.43-.313.113-.647.185-.999.185s-.686-.072-1-.186a2.962 2.962 0 0 1-.799-.43l-.01-.008a3.026 3.026 0 0 1-.616-.627l-.014-.016a2.979 2.979 0 0 1-.378-.736c-.019-.053-.033-.105-.049-.158A2.945 2.945 0 0 1 13 22c0-.295.055-.574.135-.842.016-.053.03-.105.049-.156.095-.264.217-.514.378-.738l.014-.016c.174-.236.381-.449.616-.627l.01-.008c.241-.18.51-.326.799-.43.313-.111.646-.183.999-.183.352 0 .686.072 1 .184a3.093 3.093 0 0 1 .809.438c.234.178.441.391.615.627l.014.016c.162.225.283.475.379.738.018.051.033.104.049.156.079.267.134.546.134.841 0 .293-.055.572-.135.84z"/></svg><svg width="32" height="32" viewBox="0 0 32 32" x="74"><path fill="#f4b60d" d="m30.391 12.68-3.064-.614a12.098 12.098 0 0 0-.537-1.289l1.736-2.604a1.999 1.999 0 0 0-.25-2.523l-1.924-1.924a1.996 1.996 0 0 0-2.523-.25l-2.604 1.735a12.09 12.09 0 0 0-1.291-.536L19.32 1.61A1.998 1.998 0 0 0 17.359.002h-2.72a2 2 0 0 0-1.961 1.608l-.614 3.065c-.443.154-.873.335-1.289.536L8.172 3.476a1.996 1.996 0 0 0-2.524.25L3.725 5.65a2 2 0 0 0-.25 2.523l1.735 2.604c-.202.417-.382.847-.536 1.29l-3.066.613A2 2 0 0 0 0 14.641v2.72a2 2 0 0 0 1.608 1.961l3.065.615c.154.443.335.873.536 1.289L3.475 23.83a1.999 1.999 0 0 0 .25 2.523l1.924 1.924a1.996 1.996 0 0 0 2.523.25l2.604-1.736c.417.203.847.383 1.29.537l.613 3.064a2 2 0 0 0 1.961 1.609h2.72a2 2 0 0 0 1.961-1.609l.615-3.064c.443-.154.873-.336 1.289-.537l2.604 1.736a1.998 1.998 0 0 0 2.523-.25l1.924-1.924a2 2 0 0 0 .25-2.523l-1.736-2.604c.203-.418.383-.848.537-1.291l3.064-.613A2 2 0 0 0 32 17.361v-2.72c0-.953-.674-1.774-1.609-1.961zm-3.457 5.295a1.997 1.997 0 0 0-1.496 1.305c-.129.369-.279.727-.447 1.074a1.996 1.996 0 0 0 .135 1.982l1.736 2.604-1.924 1.924-2.604-1.736a1.997 1.997 0 0 0-1.98-.137c-.348.168-.705.32-1.076.449a1.998 1.998 0 0 0-1.303 1.496l-.615 3.066h-2.72l-.613-3.066a1.997 1.997 0 0 0-1.304-1.496 10.17 10.17 0 0 1-1.075-.447 1.994 1.994 0 0 0-1.981.135l-2.604 1.736-1.924-1.924 1.735-2.604c.393-.59.444-1.344.137-1.98a10.106 10.106 0 0 1-.448-1.076 2 2 0 0 0-1.496-1.303l-3.065-.615L2 14.641l3.066-.613a1.999 1.999 0 0 0 1.496-1.304c.129-.369.278-.728.447-1.075a1.995 1.995 0 0 0-.136-1.981L5.139 7.064 7.062 5.14l2.604 1.735a1.997 1.997 0 0 0 1.98.137 10.09 10.09 0 0 1 1.075-.448 1.999 1.999 0 0 0 1.304-1.496l.614-3.065 2.72-.001.613 3.066a1.998 1.998 0 0 0 1.305 1.496c.369.129.727.278 1.074.447a1.998 1.998 0 0 0 1.982-.136l2.604-1.735 1.924 1.924-1.736 2.604a2.006 2.006 0 0 0-.137 1.98c.168.347.32.705.449 1.075a1.997 1.997 0 0 0 1.496 1.304l3.064.614.003 2.72-3.066.614zM16 9.001A7 7 0 1 0 16.001 23 7 7 0 0 0 16 9zm0 13.126c-3.382 0-6.125-2.744-6.125-6.125S12.618 9.877 16 9.877a6.127 6.127 0 0 1 6.125 6.125A6.127 6.127 0 0 1 16 22.127zm0-10.126c-2.21 0-4 1.79-4 4s1.79 4 4 4a4 4 0 0 0 0-8zm0 7.001a3.001 3.001 0 0 1 0-6 3.001 3.001 0 0 1 0 6z"/></svg></svg>