<?xml version="1.0" encoding="utf-8"?>
<!-- Generated by IcoMoon.io -->
<svg version="1.1" xmlns="http://www.w3.org/2000/svg" xmlns:xlink="http://www.w3.org/1999/xlink" width="495" height="20" viewBox="0 0 495 20">
<svg id="icon-music-notes" width="20" height="20" viewBox="0 0 20 20" x="0" y="0">
<path fill="#fff" d="M20 2.5v-2.5l-14 2v12.17c-0.297-0.108-0.639-0.17-0.996-0.17-0.002 0-0.003 0-0.005 0h-2c-1.657 0-3 1.343-3 3s1.343 3 3 3v0h2c1.657 0 3-1.343 3-3v0-11.29l10-1.41v7.88c-0.297-0.108-0.639-0.17-0.996-0.17-0.002 0-0.003 0-0.005 0h-2c-1.657 0-3 1.343-3 3s1.343 3 3 3h2c1.657 0 3-1.343 3-3v0-12.51z"></path>
</svg>
<svg id="icon-wrench" width="20" height="20" viewBox="0 0 20 20" x="25" y="0">
<path fill="#fff" d="M13.927 15.614c-0.233 0.233-0.233 0.611 0 0.844l2.599 3.302c-1.727 0.549-3.689 0.161-5.059-1.209-1.308-1.307-1.72-3.154-1.28-4.821l-3.916-3.916c-1.668 0.44-3.514 0.028-4.821-1.279-1.371-1.371-1.759-3.332-1.209-5.060l3.301 2.601c0.234 0.233 0.611 0.233 0.844 0l1.687-1.687c0.233-0.233 0.233-0.611 0-0.844l-2.599-3.302c1.727-0.549 3.688-0.161 5.059 1.209 1.308 1.308 1.721 3.154 1.28 4.822l3.917 3.917c1.667-0.441 3.514-0.028 4.821 1.279 1.371 1.371 1.759 3.332 1.21 5.061l-3.302-2.601c-0.233-0.232-0.611-0.232-0.843 0l-1.687 1.687z"></path>
</svg>
<svg id="icon-bubble" width="20" height="20" viewBox="0 0 20 20" x="50" y="0">
<path fill="#fff" d="M10 1.25c-5.523 0-10 3.638-10 8.125s4.477 8.125 10 8.125c0.53 0 1.051-0.034 1.559-0.099 2.148 2.148 4.712 2.533 7.191 2.59v-0.526c-1.339-0.656-2.5-1.85-2.5-3.216 0-0.191 0.015-0.378 0.042-0.56 2.262-1.49 3.708-3.765 3.708-6.315 0-4.487-4.477-8.125-10-8.125z"></path>
</svg>
</svg>
