<?xml version="1.0" encoding="utf-8"?>
<!-- Generated by IcoMoon.io -->
<svg version="1.1" xmlns="http://www.w3.org/2000/svg" xmlns:xlink="http://www.w3.org/1999/xlink" width="415" height="37" viewBox="0 0 415 37">
    <svg id="icon-mail-envelope" width="16" height="16" viewBox="0 0 16 16" x="0" y="0">
        <path fill="#fff" d="M3.002 4h10.496c0.557 0 1.002 0.446 1.002 0.997v6.006c0 0.55-0.449 0.997-1.002 0.997h-10.496c-0.557 0-1.002-0.446-1.002-0.997v-6.006c0-0.55 0.449-0.997 1.002-0.997zM3.5 5.5v0.5h2v-0.5h-2zM11.5 5.5v1.5h1.5v-1.5h-1.5zM12 6v0.5h0.5v-0.5h-0.5zM3.5 9v0.5h4v-0.5h-4zM3.5 10v0.5h4v-0.5h-4z"></path>
    </svg>
    <svg id="icon-location" width="16" height="16" viewBox="0 0 16 16" x="0" y="21">
        <path fill="#fff" d="M8 0c-2.761 0-5 2.239-5 5 0 5 5 11 5 11s5-6 5-11c0-2.761-2.239-5-5-5zM8 8c-1.657 0-3-1.343-3-3s1.343-3 3-3 3 1.343 3 3-1.343 3-3 3z"></path>
    </svg>
    <svg id="icon-mobile" width="16" height="16" viewBox="0 0 16 16" x="21" y="21">
        <path fill="#fff" d="M11.5 0h-7c-0.825 0-1.5 0.675-1.5 1.5v13c0 0.825 0.675 1.5 1.5 1.5h7c0.825 0 1.5-0.675 1.5-1.5v-13c0-0.825-0.675-1.5-1.5-1.5zM6 0.75h4v0.5h-4v-0.5zM8 15c-0.552 0-1-0.448-1-1s0.448-1 1-1 1 0.448 1 1-0.448 1-1 1zM12 12h-8v-10h8v10z"></path>
    </svg>
</svg>
