<?xml version="1.0" encoding="utf-8"?>
<!-- Generated by IcoMoon.io -->
<svg version="1.1" xmlns="http://www.w3.org/2000/svg" xmlns:xlink="http://www.w3.org/1999/xlink" width="735" height="32" viewBox="0 0 735 32">
<svg id="icon-truck" width="32" height="32" viewBox="0 0 32 32" x="0" y="0">
<path fill="#f4b60d" d="M24.832 11.445c-0.186-0.278-0.498-0.445-0.832-0.445h-1c-0.553 0-1 0.447-1 1v6c0 0.553 0.447 1 1 1h4c0.553 0 1-0.447 1-1v-1.5c0-0.197-0.059-0.391-0.168-0.555l-3-4.5zM27 18h-4v-6h1l3 4.5v1.5zM31.496 15.336l-4-6c-0.558-0.837-1.492-1.336-2.496-1.336h-4v-2c0-1.654-1.346-3-3-3h-15c-1.654 0-3 1.346-3 3v11c0 1.654 1.346 3 3 3v0 3c0 1.654 1.346 3 3 3h1.142c0.447 1.721 2 3 3.859 3 1.857 0 3.41-1.279 3.857-3h5.282c0.447 1.721 2 3 3.859 3 1.857 0 3.41-1.279 3.857-3h1.144c1.654 0 3-1.346 3-3v-6c0-0.594-0.174-1.17-0.504-1.664zM3 18c-0.552 0-1-0.447-1-1v-11c0-0.553 0.448-1 1-1h15c0.553 0 1 0.447 1 1v11c0 0.553-0.447 1-1 1h-15zM11.001 27c-1.105 0-2-0.896-2-2s0.895-2 2-2c1.104 0 2 0.896 2 2s-0.897 2-2 2zM24 27c-1.105 0-2-0.896-2-2s0.895-2 2-2c1.104 0 2 0.896 2 2s-0.896 2-2 2zM30 23c0 0.553-0.447 1-1 1h-1.143c-0.447-1.721-2-3-3.857-3-1.859 0-3.412 1.279-3.859 3h-5.282c-0.447-1.721-2-3-3.857-3-1.859 0-3.412 1.279-3.859 3h-1.143c-0.552 0-1-0.447-1-1v-3h13c1.654 0 3-1.346 3-3v-7h4c0.334 0 0.646 0.167 0.832 0.445l4 6c0.109 0.164 0.168 0.358 0.168 0.555v6z"></path>
</svg>
<svg id="icon-params" width="32" height="32" viewBox="0 0 32 32" x="37" y="0">
<path fill="#f4b60d" d="M8 6.021v-3.021c0-1.654-1.346-3-3-3s-3 1.346-3 3v3.021c-1.208 0.915-2 2.348-2 3.979s0.792 3.064 2 3.977v15.023c0 1.654 1.346 3 3 3s3-1.346 3-3v-15.023c1.208-0.912 2-2.346 2-3.977s-0.792-3.064-2-3.979zM4 3c0-0.553 0.447-1 1-1s1 0.447 1 1v2.1c-0.323-0.065-0.657-0.1-1-0.1s-0.677 0.035-1 0.1v-2.1zM6 29c0 0.553-0.447 1-1 1s-1-0.447-1-1v-14.102c0.323 0.067 0.657 0.102 1 0.102s0.677-0.035 1-0.102v14.102zM7.865 10.84c-0.016 0.053-0.030 0.105-0.049 0.158-0.095 0.264-0.217 0.514-0.378 0.736-0.004 0.006-0.010 0.010-0.014 0.016-0.174 0.238-0.381 0.449-0.616 0.627-0.004 0.004-0.007 0.006-0.010 0.008-0.241 0.182-0.51 0.328-0.799 0.43-0.313 0.113-0.646 0.185-0.999 0.185s-0.686-0.072-1-0.186c-0.289-0.102-0.558-0.248-0.799-0.43-0.003-0.002-0.006-0.004-0.010-0.008-0.235-0.178-0.442-0.389-0.616-0.627-0.004-0.006-0.010-0.010-0.014-0.016-0.161-0.223-0.283-0.473-0.378-0.736-0.019-0.053-0.033-0.105-0.049-0.158-0.079-0.267-0.134-0.546-0.134-0.839 0-0.295 0.055-0.574 0.135-0.842 0.016-0.053 0.030-0.105 0.049-0.156 0.094-0.264 0.216-0.514 0.378-0.738 0.004-0.006 0.010-0.010 0.014-0.016 0.174-0.236 0.381-0.449 0.616-0.627 0.004-0.002 0.007-0.006 0.010-0.008 0.24-0.179 0.509-0.326 0.798-0.429 0.314-0.112 0.647-0.184 1-0.184s0.686 0.072 1 0.184c0.289 0.104 0.558 0.25 0.799 0.43 0.003 0.002 0.006 0.006 0.010 0.008 0.235 0.178 0.442 0.391 0.616 0.627 0.004 0.006 0.010 0.010 0.014 0.016 0.161 0.223 0.283 0.473 0.377 0.737 0.019 0.051 0.034 0.103 0.049 0.156 0.080 0.268 0.135 0.547 0.135 0.842 0 0.293-0.055 0.572-0.135 0.84zM30 6.021v-3.021c0-1.654-1.346-3-3-3s-3 1.346-3 3v3.021c-1.209 0.915-2 2.348-2 3.979s0.791 3.064 2 3.977v15.023c0 1.654 1.346 3 3 3s3-1.346 3-3v-15.023c1.207-0.912 2-2.346 2-3.977s-0.793-3.064-2-3.979zM26 3c0-0.553 0.447-1 1-1s1 0.447 1 1v2.1c-0.324-0.065-0.658-0.1-1-0.1-0.344 0-0.678 0.035-1 0.1v-2.1zM28 29c0 0.553-0.447 1-1 1s-1-0.447-1-1v-14.102c0.322 0.067 0.656 0.102 1 0.102 0.342 0 0.676-0.035 1-0.102v14.102zM29.865 10.84c-0.016 0.053-0.031 0.105-0.049 0.158-0.096 0.264-0.217 0.514-0.379 0.736-0.004 0.006-0.010 0.010-0.014 0.016-0.174 0.238-0.381 0.449-0.615 0.627-0.004 0.004-0.008 0.006-0.010 0.008-0.242 0.182-0.51 0.328-0.799 0.43-0.313 0.113-0.647 0.185-0.999 0.185-0.354 0-0.686-0.072-1-0.186-0.289-0.102-0.559-0.248-0.799-0.43-0.004-0.002-0.006-0.004-0.010-0.008-0.236-0.178-0.443-0.389-0.617-0.627-0.004-0.006-0.010-0.010-0.014-0.016-0.16-0.223-0.283-0.473-0.377-0.736-0.020-0.053-0.033-0.105-0.049-0.158-0.079-0.267-0.134-0.546-0.134-0.839 0-0.295 0.055-0.574 0.135-0.842 0.016-0.053 0.029-0.105 0.049-0.156 0.094-0.264 0.217-0.514 0.377-0.738 0.004-0.006 0.010-0.010 0.014-0.016 0.174-0.236 0.381-0.449 0.617-0.627 0.004-0.002 0.006-0.006 0.010-0.008 0.24-0.18 0.51-0.326 0.799-0.43 0.313-0.111 0.645-0.183 0.999-0.183 0.352 0 0.686 0.072 1 0.184 0.289 0.104 0.557 0.25 0.799 0.43 0.002 0.002 0.006 0.006 0.010 0.008 0.234 0.178 0.441 0.391 0.615 0.627 0.004 0.006 0.010 0.010 0.014 0.016 0.162 0.225 0.283 0.475 0.379 0.738 0.018 0.051 0.033 0.104 0.049 0.156 0.079 0.267 0.134 0.546 0.134 0.841 0 0.293-0.055 0.572-0.135 0.84zM19 18.021v-15.021c0-1.654-1.346-3-3-3s-3 1.346-3 3v15.021c-1.208 0.914-2 2.348-2 3.979s0.792 3.064 2 3.977v3.023c0 1.654 1.346 3 3 3s3-1.346 3-3v-3.023c1.207-0.912 2-2.346 2-3.977s-0.793-3.064-2-3.979zM15 3c0-0.553 0.447-1 1-1s1 0.447 1 1v14.1c-0.324-0.064-0.658-0.1-1-0.1-0.343 0-0.677 0.035-1 0.1v-14.1zM17 29c0 0.553-0.447 1-1 1s-1-0.447-1-1v-2.102c0.323 0.067 0.657 0.102 1 0.102 0.342 0 0.676-0.035 1-0.102v2.102zM18.865 22.84c-0.016 0.053-0.031 0.105-0.049 0.158-0.096 0.264-0.217 0.514-0.379 0.736-0.004 0.006-0.010 0.010-0.014 0.016-0.174 0.238-0.381 0.449-0.615 0.627-0.004 0.004-0.008 0.006-0.010 0.008-0.242 0.182-0.51 0.328-0.799 0.43-0.313 0.113-0.647 0.185-0.999 0.185s-0.686-0.072-1-0.186c-0.289-0.102-0.558-0.248-0.799-0.43-0.003-0.002-0.006-0.004-0.010-0.008-0.235-0.178-0.442-0.389-0.616-0.627-0.004-0.006-0.010-0.010-0.014-0.016-0.161-0.223-0.283-0.473-0.378-0.736-0.019-0.053-0.033-0.105-0.049-0.158-0.079-0.267-0.134-0.546-0.134-0.839 0-0.295 0.055-0.574 0.135-0.842 0.016-0.053 0.030-0.105 0.049-0.156 0.095-0.264 0.217-0.514 0.378-0.738 0.004-0.006 0.010-0.010 0.014-0.016 0.174-0.236 0.381-0.449 0.616-0.627 0.004-0.002 0.007-0.006 0.010-0.008 0.241-0.18 0.51-0.326 0.799-0.43 0.313-0.111 0.646-0.183 0.999-0.183 0.352 0 0.686 0.072 1 0.184 0.289 0.104 0.557 0.25 0.799 0.43 0.002 0.002 0.006 0.006 0.010 0.008 0.234 0.178 0.441 0.391 0.615 0.627 0.004 0.006 0.010 0.010 0.014 0.016 0.162 0.225 0.283 0.475 0.379 0.738 0.018 0.051 0.033 0.104 0.049 0.156 0.079 0.267 0.134 0.546 0.134 0.841 0 0.293-0.055 0.572-0.135 0.84z"></path>
</svg>
<svg id="icon-settings1" width="32" height="32" viewBox="0 0 32 32" x="74" y="0">
<path fill="#f4b60d" d="M30.391 12.68l-3.064-0.614c-0.154-0.443-0.336-0.873-0.537-1.289l1.736-2.604c0.529-0.793 0.424-1.85-0.25-2.523l-1.924-1.924c-0.387-0.387-0.898-0.586-1.416-0.586-0.383 0-0.77 0.11-1.107 0.336l-2.604 1.735c-0.418-0.202-0.848-0.382-1.291-0.536l-0.614-3.065c-0.186-0.936-1.008-1.608-1.961-1.608h-2.72c-0.953 0-1.774 0.673-1.961 1.608l-0.614 3.065c-0.443 0.154-0.873 0.335-1.289 0.536l-2.603-1.735c-0.339-0.226-0.725-0.336-1.109-0.336-0.517 0-1.028 0.199-1.415 0.586l-1.923 1.924c-0.674 0.674-0.779 1.73-0.25 2.523l1.735 2.604c-0.202 0.417-0.382 0.847-0.536 1.29l-3.066 0.613c-0.935 0.187-1.608 1.008-1.608 1.961v2.72c0 0.953 0.673 1.775 1.608 1.961l3.065 0.615c0.154 0.443 0.335 0.873 0.536 1.289l-1.734 2.604c-0.529 0.793-0.424 1.85 0.25 2.523l1.924 1.924c0.387 0.387 0.898 0.586 1.415 0.586 0.384 0 0.771-0.111 1.108-0.336l2.604-1.736c0.417 0.203 0.847 0.383 1.29 0.537l0.613 3.064c0.187 0.936 1.008 1.609 1.961 1.609h2.72c0.953 0 1.775-0.674 1.961-1.609l0.615-3.064c0.443-0.154 0.873-0.336 1.289-0.537l2.604 1.736c0.338 0.225 0.725 0.336 1.107 0.336 0.518 0 1.029-0.199 1.416-0.586l1.924-1.924c0.674-0.674 0.779-1.73 0.25-2.523l-1.736-2.604c0.203-0.418 0.383-0.848 0.537-1.291l3.064-0.613c0.935-0.185 1.609-1.008 1.609-1.961v-2.72c0-0.953-0.674-1.774-1.609-1.961zM26.934 17.975c-0.695 0.139-1.264 0.635-1.496 1.305-0.129 0.369-0.279 0.727-0.447 1.074-0.311 0.639-0.258 1.393 0.135 1.982l1.736 2.604-1.924 1.924-2.604-1.736c-0.334-0.223-0.721-0.336-1.109-0.336-0.297 0-0.596 0.066-0.871 0.199-0.348 0.168-0.705 0.32-1.076 0.449-0.668 0.232-1.164 0.801-1.303 1.496l-0.615 3.066h-2.72l-0.613-3.066c-0.139-0.695-0.635-1.264-1.304-1.496-0.369-0.129-0.728-0.279-1.075-0.447-0.276-0.135-0.574-0.201-0.872-0.201-0.389 0-0.775 0.113-1.109 0.336l-2.604 1.736-1.924-1.924 1.735-2.604c0.393-0.59 0.444-1.344 0.137-1.98-0.168-0.348-0.319-0.705-0.448-1.076-0.232-0.668-0.802-1.164-1.496-1.303l-3.065-0.615-0.002-2.721 3.066-0.613c0.694-0.139 1.264-0.635 1.496-1.304 0.129-0.369 0.278-0.728 0.447-1.075 0.31-0.638 0.258-1.392-0.136-1.981l-1.734-2.604 1.923-1.924 2.604 1.735c0.334 0.223 0.721 0.336 1.109 0.336 0.297 0 0.595-0.066 0.871-0.199 0.347-0.168 0.705-0.319 1.075-0.448 0.669-0.232 1.165-0.802 1.304-1.496l0.614-3.065 2.72-0.001 0.613 3.066c0.139 0.694 0.635 1.264 1.305 1.496 0.369 0.129 0.727 0.278 1.074 0.447 0.277 0.134 0.574 0.2 0.873 0.2 0.389 0 0.775-0.113 1.109-0.336l2.604-1.735 1.924 1.924-1.736 2.604c-0.393 0.59-0.443 1.343-0.137 1.98 0.168 0.347 0.32 0.705 0.449 1.075 0.232 0.669 0.801 1.165 1.496 1.304l3.064 0.614 0.003 2.72-3.066 0.614zM16 9.001c-3.865 0-7 3.135-7 7 0 3.866 3.135 7 7 7s7-3.135 7-7c0-3.865-3.135-7-7-7zM16 22.127c-3.382 0-6.125-2.744-6.125-6.125s2.743-6.125 6.125-6.125c3.381 0 6.125 2.743 6.125 6.125 0 3.381-2.744 6.125-6.125 6.125zM16 12.001c-2.21 0-4 1.79-4 4s1.79 4 4 4c2.209 0 4-1.791 4-4s-1.791-4-4-4zM16 19.002c-1.656 0-3-1.344-3-3s1.344-3 3-3 3 1.344 3 3c0 1.656-1.344 3-3 3z"></path>
</svg>
</svg>
