<?xml version="1.0" encoding="utf-8"?>
<!-- Generated by IcoMoon.io -->
<svg version="1.1" xmlns="http://www.w3.org/2000/svg" xmlns:xlink="http://www.w3.org/1999/xlink" width="415" height="16" viewBox="0 0 415 16">
<svg id="icon-checkbox-checked" width="16" height="16" viewBox="0 0 16 16" x="0" y="0">
<path d="M14 0h-12c-1.1 0-2 0.9-2 2v12c0 1.1 0.9 2 2 2h12c1.1 0 2-0.9 2-2v-12c0-1.1-0.9-2-2-2zM7 12.414l-3.707-3.707 1.414-1.414 2.293 2.293 4.793-4.793 1.414 1.414-6.207 6.207z"></path>
</svg>
<svg id="icon-checkbox-unchecked" width="16" height="16" viewBox="0 0 16 16" x="21" y="0">
<path d="M14 0h-12c-1.1 0-2 0.9-2 2v12c0 1.1 0.9 2 2 2h12c1.1 0 2-0.9 2-2v-12c0-1.1-0.9-2-2-2zM14 14h-12v-12h12v12z"></path>
</svg>
</svg>
